<?xml version="1.0" encoding="utf-8"?>
<!-- Generator: Adobe Illustrator 16.0.0, SVG Export Plug-In . SVG Version: 6.00 Build 0)  -->
<!DOCTYPE svg PUBLIC "-//W3C//DTD SVG 1.1//EN" "http://www.w3.org/Graphics/SVG/1.1/DTD/svg11.dtd">
<svg version="1.1" id="Layer_1" xmlns="http://www.w3.org/2000/svg" xmlns:xlink="http://www.w3.org/1999/xlink" x="0px" y="0px"
	 width="960px" height="560px" viewBox="0 0 960 560" enable-background="new 0 0 960 560" xml:space="preserve">
<g>
	<g>
		<path fill="#666561" d="M312.609,321.219c3.711-4.232,9.814-6.348,18.311-6.348c8.398,0,14.404,2.1,18.018,6.299
			c2.018,2.344,3.027,4.834,3.027,7.471v42.676c0,2.604-1.009,5.062-3.027,7.373c-3.613,4.199-9.619,6.299-18.018,6.299
			c-8.496,0-14.6-2.115-18.311-6.348c-2.051-2.377-3.076-4.818-3.076-7.324v-42.822C309.533,326.02,310.558,323.595,312.609,321.219
			z M342.98,325.955c-2.214-2.377-6.234-3.564-12.061-3.564c-5.99,0-10.14,1.188-12.451,3.564c-0.912,0.879-1.384,1.725-1.416,2.539
			v42.773c0.032,0.813,0.504,1.692,1.416,2.637c2.311,2.344,6.461,3.516,12.451,3.516c5.827,0,9.863-1.188,12.109-3.564
			c0.879-0.977,1.351-1.872,1.416-2.686v-42.432C344.379,327.892,343.891,326.964,342.98,325.955z"/>
		<path fill="#666561" d="M395.415,359.012c-1.205-0.131-2.133-0.651-2.783-1.562c-0.457-0.619-0.684-1.303-0.684-2.051v-0.391
			c0.031-0.195,0.049-0.342,0.049-0.439c0-0.195-0.049-0.521-0.146-0.977c-0.229-1.237-0.781-2.36-1.66-3.369
			c-1.661-1.855-4.493-2.783-8.497-2.783h-4.053c-4.004,0-6.836,0.928-8.496,2.783c-1.172,1.302-1.758,3.353-1.758,6.152
			l-0.049,3.711l0.049,8.545c-0.033,0.423-0.049,0.797-0.049,1.123c0,1.985,0.602,3.646,1.807,4.98
			c1.66,1.888,4.492,2.832,8.496,2.832h5.664c3.027,0,5.241-0.732,6.641-2.197c1.334-1.4,2.002-2.914,2.002-4.541v-0.391
			c0-0.847,0.26-1.628,0.781-2.344c0.65-0.749,1.529-1.188,2.637-1.318c1.139,0,2.051,0.342,2.734,1.025
			c0.781,0.65,1.172,1.465,1.172,2.441c0.031,0.293,0.049,0.618,0.049,0.977c0,3.385-1.336,6.478-4.004,9.277
			c-2.865,2.994-6.869,4.492-12.012,4.492h-5.664c-6.218,0-10.873-1.791-13.965-5.371c-1.855-2.084-3.027-4.574-3.516-7.471
			c-0.13-0.847-0.195-1.677-0.195-2.49c0-0.586,0.032-1.059,0.098-1.416l-0.098-8.984l0.098-2.637
			c-0.065-0.326-0.098-0.766-0.098-1.318c0-0.781,0.065-1.596,0.195-2.441c0.488-2.963,1.66-5.485,3.516-7.568
			c3.092-3.549,7.747-5.322,13.965-5.322h5.029c5.827,0.391,10.157,2.164,12.989,5.322c2.441,2.767,3.662,5.811,3.662,9.131v0.342
			c0,0.488-0.018,0.846-0.049,1.074c-0.131,1.041-0.652,1.904-1.562,2.588C397.057,358.816,396.293,359.012,395.415,359.012z"/>
		<path fill="#666561" d="M427.904,377.42c2.506,0,3.76,1.236,3.76,3.711c0,2.572-1.254,3.857-3.76,3.857h-5.225
			c-3.646,0-6.967-1.107-9.961-3.32c-2.93-2.148-4.851-5.176-5.762-9.082c-0.358-1.53-0.537-2.995-0.537-4.395
			c0-0.424,0.016-0.766,0.049-1.025v-48.877c0-2.377,1.253-3.564,3.76-3.564c2.506,0,3.76,1.188,3.76,3.564v22.998h13.916
			c2.506,0,3.76,1.27,3.76,3.809c0,2.474-1.254,3.711-3.76,3.711h-13.916v18.799c-0.033,0.26-0.049,0.439-0.049,0.537
			c0,0.748,0.13,1.611,0.391,2.588c0.488,2.213,1.432,3.824,2.832,4.834c1.692,1.236,3.531,1.855,5.518,1.855H427.904z"/>
		<path fill="#666561" d="M477.741,368.582c0.032,1.465-0.017,2.62-0.146,3.467c-0.488,2.962-1.66,5.501-3.516,7.617
			c-2.832,3.189-7.064,4.932-12.695,5.225l-5.469,0.098c-6.283,0-10.986-1.773-14.111-5.322c-1.855-2.116-3.027-4.655-3.516-7.617
			c-0.131-0.847-0.195-1.66-0.195-2.441l0.049-9.57c-0.033-2.67-0.049-4.281-0.049-4.834c0-0.749,0.064-1.596,0.195-2.539
			c0.488-2.93,1.66-5.453,3.516-7.568c3.125-3.516,7.812-5.273,14.062-5.273h2.93l2.637,0.098c5.566,0.26,9.781,1.985,12.646,5.176
			c1.855,2.115,3.011,4.654,3.467,7.617c0.13,0.911,0.195,1.79,0.195,2.637c0,0.391-0.017,0.781-0.049,1.172l0.049,3.516V368.582z
			 M459.968,377.566c4.036,0,6.9-0.961,8.593-2.881c1.172-1.303,1.758-3.354,1.758-6.152c0.13-3.418,0.162-7.959,0.098-13.623
			c0-1.889-0.619-3.532-1.855-4.932c-1.66-1.855-4.525-2.783-8.593-2.783h-4.102c-4.037,0-6.885,0.928-8.545,2.783
			c-1.237,1.399-1.855,3.043-1.855,4.932c0,0.325,0.016,2.994,0.049,8.008c0.032,5.013,0.064,7.682,0.098,8.008
			c0.26,1.497,0.83,2.75,1.709,3.76c1.66,1.92,4.508,2.881,8.545,2.881H459.968z"/>
		<path fill="#666561" d="M505.587,342.02c5.696,0,9.896,1.546,12.598,4.639c2.278,2.571,3.418,5.908,3.418,10.01v0.195l0.049,9.912
			l-0.049,3.076c0.032,0.325,0.049,0.65,0.049,0.977c0,3.613-1.172,6.754-3.516,9.424c-2.539,2.865-6.723,4.297-12.549,4.297h-5.273
			c-5.469-0.293-9.457-1.871-11.963-4.736c-0.424-0.456-0.814-0.977-1.172-1.562v28.418c0,0.553-0.342,0.83-1.025,0.83
			c-0.651,0-0.977-0.277-0.977-0.83v-63.867c0-0.684,0.325-1.025,0.977-1.025c0.684,0,1.025,0.342,1.025,1.025v5.225
			c0.488-0.879,1.009-1.579,1.562-2.1c2.474-2.604,6.055-3.906,10.742-3.906H505.587z M487.179,372.781
			c0.325,2.311,1.172,4.264,2.539,5.859c2.408,2.701,6.25,4.053,11.523,4.053h4.346c5.273,0,9-1.221,11.182-3.662
			c2.018-2.312,3.027-5.339,3.027-9.082v-4.053l-0.049-9.18c0-3.679-0.977-6.625-2.93-8.838c-2.377-2.67-6.12-4.004-11.23-4.004
			h-6.104c-4.167,0-7.309,1.106-9.424,3.32c-1.596,1.66-2.556,3.841-2.881,6.543V372.781z"/>
		<path fill="#666561" d="M560.249,379.91c-2.702,3.158-7.91,4.736-15.625,4.736c-6.771,0-11.508-1.904-14.209-5.713
			c-1.367-1.889-2.051-3.793-2.051-5.713V342.85c0-0.488,0.309-0.732,0.928-0.732c0.618,0,0.928,0.244,0.928,0.732v29.932
			c0,1.66,0.667,3.385,2.002,5.176c2.474,3.223,6.607,4.834,12.402,4.834c6.771,0,11.393-1.416,13.867-4.248
			c1.139-1.303,1.709-2.751,1.709-4.346v-31.25c0-0.424,0.162-0.684,0.488-0.781c0.098-0.033,0.211-0.049,0.342-0.049h0.293
			c0.13,0,0.26,0.016,0.391,0.049c0.325,0.13,0.488,0.423,0.488,0.879v40.918c0,0.553-0.326,0.83-0.977,0.83
			c-0.651,0-0.977-0.277-0.977-0.83V379.91z"/>
		<path fill="#666561" d="M581.419,362.625h13.184c1.302,0,2.457,0.13,3.467,0.391c2.051,0.488,3.743,1.383,5.078,2.686
			c1.953,1.92,2.93,4.541,2.93,7.861c0,3.125-1.025,5.631-3.076,7.52c-2.604,2.408-6.413,3.613-11.426,3.613
			c-0.456,0-0.879-0.016-1.27-0.049h-6.055c-6.934,0-11.54-2.344-13.818-7.031c-0.065-0.131-0.098-0.261-0.098-0.391
			c0-0.131,0.016-0.244,0.049-0.342c0.064-0.229,0.211-0.407,0.439-0.537c0.162-0.065,0.342-0.098,0.537-0.098
			c0.357,0.032,0.602,0.211,0.732,0.537c1.953,4.004,6.006,6.006,12.158,6.006h6.152c0.357,0.033,0.732,0.049,1.123,0.049
			c0.911,0,1.953-0.082,3.125-0.244c3.092-0.424,5.452-1.4,7.08-2.93c1.627-1.498,2.441-3.532,2.441-6.104
			c0-2.8-0.781-4.965-2.344-6.494c-1.074-1.074-2.49-1.823-4.248-2.246c-0.847-0.195-1.645-0.293-2.393-0.293
			c-0.391-0.033-4.98-0.049-13.77-0.049c-4.265,0-7.487-1.221-9.668-3.662c-1.66-1.855-2.49-3.939-2.49-6.25
			c0-3.744,1.334-6.706,4.004-8.887c2.637-2.182,6.25-3.271,10.84-3.271h7.666c4.297,0,7.682,1.188,10.156,3.564
			c1.725,1.66,2.93,3.775,3.613,6.348c0.032,0.098,0.049,0.179,0.049,0.244c0,0.162-0.049,0.325-0.146,0.488
			c-0.131,0.228-0.326,0.374-0.586,0.439c-0.065,0.032-0.131,0.049-0.195,0.049c-0.195,0-0.375-0.065-0.537-0.195
			c-0.195-0.131-0.326-0.31-0.391-0.537c-1.498-5.664-5.485-8.496-11.963-8.496h-7.666c-4.069,0-7.243,0.895-9.521,2.686
			c-2.279,1.822-3.418,4.346-3.418,7.568c0,1.399,0.439,2.783,1.318,4.15C574.176,361.322,577.154,362.625,581.419,362.625z"/>
		<path fill="#666561" d="M647.682,353.982c0-1.66-0.7-3.402-2.1-5.225c-2.539-3.256-6.657-4.883-12.354-4.883
			c-7.812,0-13.2,1.432-16.162,4.297c-1.433,1.367-2.148,2.815-2.148,4.346v31.445c0,0.391-0.229,0.619-0.684,0.684h-0.195
			c-0.326,0-0.586-0.113-0.781-0.342c-0.229-0.195-0.342-0.439-0.342-0.732v-68.164c0-0.554,0.325-0.83,0.977-0.83
			c0.684,0,1.025,0.276,1.025,0.83v32.227c2.994-3.711,9.098-5.566,18.311-5.566c6.934,0,11.719,1.969,14.355,5.908
			c1.27,1.888,1.904,3.89,1.904,6.006v29.98c0,0.488-0.293,0.732-0.879,0.732c-0.619,0-0.928-0.244-0.928-0.732V353.982z"/>
	</g>
	<g>
		<path fill="#59C0A6" d="M532.412,249.55c-1.446-1.557-2.794-2.244-4.083-2.347c0.589-3.438,0.907-7.24,0.907-11.473
			c0-35.979-22.263-82.73-49.725-82.73c-27.463,0-49.727,46.751-49.727,82.73c0,4.232,0.319,8.034,0.907,11.473
			c-1.289,0.102-2.638,0.791-4.083,2.347c-3.69,3.975-4.223,9.483-1.188,12.3c2.566,2.381,6.858,2.067,10.355-0.486
			c0.027,0.042,0.056,0.082,0.083,0.124c-1.14,0.602-2.107,1.763-2.823,3.755c-1.836,5.104-0.167,10.379,3.73,11.781
			c3.578,1.286,7.784-1.147,9.87-5.507c0.168,0.093,0.339,0.182,0.51,0.274c-0.156,0.363-0.303,0.749-0.433,1.185
			c-1.544,5.2,0.422,10.371,4.391,11.55c3.969,1.18,8.439-2.081,9.983-7.282c0.097-0.326,0.176-0.639,0.238-0.938
			c0.687,0.115,1.382,0.224,2.085,0.322c-0.02,0.123-0.045,0.236-0.061,0.367c-0.664,5.383,2.128,10.158,6.239,10.667
			c4.107,0.508,7.978-3.445,8.643-8.829c0.056-0.449,0.074-0.858,0.078-1.253c0.401,0.001,0.799,0.007,1.202,0.007
			c0.402,0,0.801-0.006,1.2-0.007c0.004,0.395,0.022,0.804,0.078,1.253c0.665,5.384,4.535,9.337,8.643,8.829
			c4.11-0.509,6.903-5.284,6.239-10.667c-0.017-0.131-0.041-0.244-0.062-0.367c0.702-0.099,1.397-0.207,2.086-0.322
			c0.061,0.3,0.141,0.612,0.237,0.938c1.545,5.201,6.014,8.462,9.983,7.282c3.969-1.179,5.936-6.35,4.391-11.55
			c-0.129-0.436-0.277-0.821-0.433-1.185c0.17-0.091,0.341-0.181,0.51-0.274c2.086,4.359,6.292,6.793,9.869,5.507
			c3.897-1.402,5.566-6.677,3.73-11.781c-0.717-1.992-1.683-3.152-2.822-3.755c0.026-0.042,0.055-0.082,0.083-0.124
			c3.496,2.555,7.788,2.867,10.354,0.486C536.635,259.033,536.104,253.525,532.412,249.55z M459.472,236.927
			c-9.846,0-17.828-2.107-17.828-15.007c0-12.9,7.982-29.663,17.828-29.663c9.849,0,17.83,16.763,17.83,29.663
			C477.302,234.819,469.321,236.927,459.472,236.927z M499.548,236.927c-9.846,0-17.828-2.107-17.828-15.007
			c0-12.9,7.982-29.663,17.828-29.663c9.847,0,17.83,16.763,17.83,29.663C517.378,234.819,509.395,236.927,499.548,236.927z"/>
		<circle fill="#59C0A6" cx="491.943" cy="227.016" r="3.68"/>
		<circle fill="#59C0A6" cx="467.815" cy="227.016" r="3.681"/>
	</g>
</g>
</svg>
